<svg width="25" height="19" viewBox="0 0 25 19" fill="none" xmlns="http://www.w3.org/2000/svg">
<path d="M25 9.50002C25 9.89782 24.842 10.2793 24.5607 10.5606C24.2794 10.8419 23.8978 11 23.5 11H1.5C1.10217 11 0.72064 10.8419 0.43934 10.5606C0.15803 10.2793 0 9.89782 0 9.50002C0 9.10222 0.15803 8.72062 0.43934 8.43932C0.72064 8.15802 1.10217 8.00002 1.5 8.00002H23.5C23.8978 8.00002 24.2794 8.15802 24.5607 8.43932C24.842 8.72062 25 9.10222 25 9.50002ZM1.5 3.00002H23.5C23.8978 3.00002 24.2794 2.84192 24.5607 2.56066C24.842 2.27935 25 1.89782 25 1.5C25 1.10217 24.842 0.72064 24.5607 0.43934C24.2794 0.15803 23.8978 0 23.5 0H1.5C1.10217 0 0.72064 0.15803 0.43934 0.43934C0.15803 0.72064 0 1.10217 0 1.5C0 1.89782 0.15803 2.27935 0.43934 2.56066C0.72064 2.84192 1.10217 3.00002 1.5 3.00002ZM23.5 16H1.5C1.10217 16 0.72064 16.158 0.43934 16.4393C0.15803 16.7206 0 17.1022 0 17.5C0 17.8978 0.15803 18.2793 0.43934 18.5606C0.72064 18.8419 1.10217 19 1.5 19H23.5C23.8978 19 24.2794 18.8419 24.5607 18.5606C24.842 18.2793 25 17.8978 25 17.5C25 17.1022 24.842 16.7206 24.5607 16.4393C24.2794 16.158 23.8978 16 23.5 16Z" fill="white"/>
</svg>
