<svg width="10" height="10" viewBox="0 0 10 10" fill="none" xmlns="http://www.w3.org/2000/svg">
<path d="M8.91564 2.97814L3.91564 7.97814C3.87169 8.02203 3.81212 8.04668 3.75001 8.04668C3.6879 8.04668 3.62833 8.02203 3.58439 7.97814L1.39689 5.79064C1.35549 5.74621 1.33295 5.68744 1.33402 5.62673C1.33509 5.56601 1.35969 5.50807 1.40263 5.46513C1.44557 5.42219 1.50351 5.39759 1.56422 5.39652C1.62494 5.39545 1.68371 5.41799 1.72814 5.45939L3.75001 7.48087L8.58439 2.64689C8.62882 2.60549 8.68758 2.58295 8.7483 2.58402C8.80902 2.58509 8.86695 2.60969 8.90989 2.65263C8.95284 2.69557 8.97743 2.75351 8.97851 2.81423C8.97958 2.87494 8.95704 2.93371 8.91564 2.97814Z" fill="#25B7AD"/>
</svg>
