<svg width="23" height="18" viewBox="0 0 23 18" fill="none" xmlns="http://www.w3.org/2000/svg">
<path d="M18.5428 3H4.32594C3.34853 3 2.54883 3.675 2.54883 4.5V13.5C2.54883 14.325 3.34853 15 4.32594 15H18.5428C19.5202 15 20.3199 14.325 20.3199 13.5V4.5C20.3199 3.675 19.5202 3 18.5428 3ZM18.1874 6.18752L12.3763 9.25502C11.7987 9.56252 11.0701 9.56252 10.4925 9.25502L4.68136 6.18752C4.59226 6.14529 4.51424 6.08827 4.45202 6.01984C4.38979 5.95146 4.34465 5.87308 4.31934 5.78951C4.29403 5.706 4.28907 5.61896 4.30475 5.53374C4.32044 5.44852 4.35645 5.36686 4.4106 5.29371C4.46476 5.2206 4.53592 5.1575 4.61981 5.10823C4.70369 5.059 4.79853 5.02464 4.89861 5.00723C4.99868 4.98981 5.1019 4.98973 5.20201 5.00696C5.30213 5.0242 5.39706 5.0584 5.48106 5.10752L11.4344 8.24998L17.3877 5.10752C17.4717 5.0584 17.5666 5.0242 17.6667 5.00696C17.7669 4.98973 17.8701 4.98981 17.9702 5.00723C18.0702 5.02464 18.1651 5.059 18.2489 5.10823C18.3328 5.1575 18.404 5.2206 18.4581 5.29371C18.5123 5.36686 18.5483 5.44852 18.564 5.53374C18.5797 5.61896 18.5747 5.706 18.5494 5.78951C18.5241 5.87308 18.4789 5.95146 18.4167 6.01984C18.3545 6.08827 18.2765 6.14529 18.1874 6.18752Z" fill="#25B7AD"/>
</svg>
