<svg width="30" height="30" viewBox="0 0 30 30" fill="none" xmlns="http://www.w3.org/2000/svg">
<path d="M15 20.5288C15.2183 20.5288 15.4008 20.455 15.5475 20.3075C15.695 20.16 15.7687 19.9775 15.7687 19.76C15.7687 19.5417 15.695 19.3588 15.5475 19.2113C15.4008 19.0638 15.2183 18.99 15 18.99C14.7817 18.99 14.5992 19.0638 14.4525 19.2113C14.305 19.3588 14.2313 19.5417 14.2313 19.76C14.2313 19.9775 14.305 20.16 14.4525 20.3075C14.5992 20.455 14.7817 20.5288 15 20.5288ZM14.375 16.8275H15.625V9.23125H14.375V16.8275ZM10.8413 25L5 19.17V10.8413L10.83 5H19.1587L25 10.83V19.1587L19.17 25H10.8413Z" fill="#25B7AD"/>
</svg>
