<svg width="30" height="30" viewBox="0 0 30 30" fill="none" xmlns="http://www.w3.org/2000/svg">
<path d="M15 2.8125C12.5896 2.8125 10.2332 3.52728 8.22899 4.86647C6.22477 6.20564 4.66266 8.10907 3.74022 10.336C2.81778 12.563 2.57643 15.0135 3.04668 17.3776C3.51694 19.7418 4.67769 21.9134 6.38214 23.6179C8.08659 25.3223 10.2582 26.4831 12.6224 26.9534C14.9865 27.4236 17.437 27.1822 19.6639 26.2597C21.891 25.3373 23.7943 23.7752 25.1336 21.771C26.4727 19.7668 27.1875 17.4104 27.1875 15C27.1841 11.7687 25.8989 8.67076 23.6141 6.38591C21.3292 4.10105 18.2313 2.81591 15 2.8125ZM21.5625 15.9375H15C14.7513 15.9375 14.5129 15.8387 14.3371 15.6629C14.1613 15.4871 14.0625 15.2487 14.0625 15V8.4375C14.0625 8.18886 14.1613 7.9504 14.3371 7.77458C14.5129 7.59878 14.7513 7.5 15 7.5C15.2487 7.5 15.4872 7.59878 15.6629 7.77458C15.8387 7.9504 15.9375 8.18886 15.9375 8.4375V14.0625H21.5625C21.8112 14.0625 22.0497 14.1613 22.2254 14.3371C22.4012 14.5129 22.5 14.7513 22.5 15C22.5 15.2487 22.4012 15.4871 22.2254 15.6629C22.0497 15.8387 21.8112 15.9375 21.5625 15.9375Z" fill="#25B7AD"/>
</svg>
