<svg width="30" height="30" viewBox="0 0 30 30" fill="none" xmlns="http://www.w3.org/2000/svg">
<path d="M19.6875 15C19.6875 15.9271 19.4126 16.8334 18.8975 17.6042C18.3824 18.3751 17.6504 18.9759 16.7938 19.3307C15.9373 19.6855 14.9948 19.7783 14.0855 19.5974C13.1762 19.4166 12.341 18.9701 11.6854 18.3146C11.0299 17.659 10.5834 16.8238 10.4026 15.9145C10.2217 15.0052 10.3145 14.0627 10.6693 13.2062C11.0241 12.3496 11.6249 11.6176 12.3958 11.1025C13.1666 10.5874 14.0729 10.3125 15 10.3125C16.2432 10.3125 17.4355 10.8064 18.3146 11.6854C19.1936 12.5645 19.6875 13.7568 19.6875 15ZM29.0625 7.5V22.5C29.0625 22.7486 28.9637 22.9871 28.7879 23.1629C28.6121 23.3387 28.3736 23.4375 28.125 23.4375H1.875C1.62636 23.4375 1.3879 23.3387 1.21209 23.1629C1.03627 22.9871 0.9375 22.7486 0.9375 22.5V7.5C0.9375 7.25136 1.03627 7.0129 1.21209 6.83709C1.3879 6.66127 1.62636 6.5625 1.875 6.5625H28.125C28.3736 6.5625 28.6121 6.66127 28.7879 6.83709C28.9637 7.0129 29.0625 7.25136 29.0625 7.5ZM27.1875 12.9316C26.123 12.6169 25.1541 12.0408 24.3692 11.2558C23.5842 10.4709 23.0081 9.50203 22.6934 8.4375H7.30664C6.99188 9.50203 6.41579 10.4709 5.63084 11.2558C4.84589 12.0408 3.87703 12.6169 2.8125 12.9316V17.0684C3.87703 17.3831 4.84589 17.9592 5.63084 18.7442C6.41579 19.5291 6.99188 20.498 7.30664 21.5625H22.6934C23.0081 20.498 23.5842 19.5291 24.3692 18.7442C25.1541 17.9592 26.123 17.3831 27.1875 17.0684V12.9316Z" fill="#25B7AD"/>
</svg>
