<svg width="15" height="14" viewBox="0 0 15 14" fill="none" xmlns="http://www.w3.org/2000/svg">
<g clip-path="url(#clip0_183_1108)">
<path d="M10.4611 8.96653L10.0838 9.33798C10.0838 9.33798 9.18573 10.2202 6.73543 7.81129C4.28513 5.40231 5.18315 4.52007 5.18315 4.52007L5.42033 4.28558C6.00657 3.70998 6.06211 2.7851 5.55048 2.10948L4.5057 0.729537C3.87219 -0.106792 2.64911 -0.217483 1.92355 0.495859L0.621692 1.77495C0.262645 2.12916 0.0221743 2.58668 0.0511963 3.09503C0.125825 4.39626 0.721197 7.1947 4.04135 10.4596C7.563 13.9214 10.8674 14.0592 12.2182 13.9345C12.646 13.8952 13.0175 13.6803 13.3169 13.3852L14.4943 12.2274C15.2904 11.446 15.0665 10.1054 14.0483 9.55855L12.4644 8.70665C11.7961 8.3475 10.9834 8.45328 10.4611 8.96653Z" fill="#25B7AD"/>
</g>
<defs>
<clipPath id="clip0_183_1108">
<rect width="15" height="14" fill="white"/>
</clipPath>
</defs>
</svg>
