<svg width="30" height="30" viewBox="0 0 30 30" fill="none" xmlns="http://www.w3.org/2000/svg">
<path d="M28.5129 15.9375L16.875 4.29962C16.7015 4.12475 16.495 3.98611 16.2675 3.89176C16.04 3.79741 15.7959 3.74922 15.5496 3.75001H4.68751C4.43887 3.75001 4.20041 3.84878 4.0246 4.0246C3.84878 4.20041 3.75001 4.43887 3.75001 4.68751V15.5496C3.74922 15.7959 3.79741 16.04 3.89176 16.2675C3.98611 16.495 4.12475 16.7015 4.29962 16.875L15.9375 28.5129C16.1116 28.6871 16.3183 28.8252 16.5459 28.9195C16.7734 29.0137 17.0172 29.0622 17.2635 29.0622C17.5098 29.0622 17.7536 29.0137 17.9811 28.9195C18.2086 28.8252 18.4153 28.6871 18.5895 28.5129L28.5129 18.5895C28.6871 18.4153 28.8252 18.2086 28.9195 17.9811C29.0137 17.7536 29.0622 17.5098 29.0622 17.2635C29.0622 17.0172 29.0137 16.7734 28.9195 16.5459C28.8252 16.3183 28.6871 16.1116 28.5129 15.9375ZM9.84376 11.25C9.56563 11.25 9.29375 11.1675 9.06249 11.013C8.83123 10.8585 8.65099 10.6389 8.54455 10.3819C8.43812 10.1249 8.41027 9.8422 8.46453 9.56941C8.51879 9.29663 8.65272 9.04606 8.84939 8.84939C9.04606 8.65272 9.29663 8.51879 9.56941 8.46453C9.8422 8.41027 10.1249 8.43812 10.3819 8.54455C10.6389 8.65099 10.8585 8.83123 11.013 9.06249C11.1675 9.29375 11.25 9.56563 11.25 9.84376C11.25 10.2167 11.1019 10.5744 10.8381 10.8381C10.5744 11.1019 10.2167 11.25 9.84376 11.25Z" fill="white"/>
</svg>
