<svg width="46" height="46" viewBox="0 0 46 46" fill="none" xmlns="http://www.w3.org/2000/svg">
<path d="M11.5216 26.5577C11.5264 26.6551 11.5114 26.7524 11.4775 26.8438C11.4436 26.9352 11.3914 27.0188 11.3242 27.0893C11.2569 27.1599 11.1761 27.2161 11.0864 27.2545C10.9968 27.2928 10.9003 27.3125 10.8028 27.3124H2.875C2.55054 27.3129 2.23547 27.2036 1.981 27.0023C1.72654 26.801 1.54765 26.5196 1.47343 26.2037C1.42722 25.9875 1.42935 25.7638 1.47967 25.5486C1.53 25.3333 1.62727 25.1318 1.76453 24.9585C3.03278 23.2766 4.71552 21.9523 6.64843 21.115C5.79982 20.3413 5.14895 19.3754 4.75035 18.2985C4.35175 17.2215 4.21702 16.0646 4.35744 14.9248C4.49786 13.7851 4.90935 12.6955 5.55744 11.7475C6.20553 10.7994 7.07135 10.0205 8.08239 9.47588C9.09343 8.93126 10.2203 8.63683 11.3685 8.61726C12.5167 8.59768 13.6529 8.85352 14.6819 9.36335C15.7109 9.87319 16.6028 10.6222 17.2828 11.5476C17.9629 12.473 18.4113 13.5478 18.5905 14.6822C18.6136 14.8347 18.5863 14.9906 18.5127 15.1262C18.439 15.2618 18.3231 15.3696 18.1826 15.4333C16.1887 16.355 14.5002 17.8279 13.3161 19.678C12.132 21.5281 11.5019 23.6783 11.5 25.8749C11.5 26.1049 11.5 26.3313 11.5216 26.5577ZM44.2247 24.9567C42.9594 23.2767 41.2805 21.9532 39.3516 21.115C40.2002 20.3413 40.851 19.3754 41.2496 18.2985C41.6482 17.2215 41.783 16.0646 41.6426 14.9248C41.5021 13.7851 41.0906 12.6955 40.4426 11.7475C39.7945 10.7994 38.9286 10.0205 37.9176 9.47588C36.9066 8.93126 35.7797 8.63683 34.6315 8.61726C33.4833 8.59768 32.3471 8.85352 31.3181 9.36335C30.289 9.87319 29.3972 10.6222 28.7171 11.5476C28.0371 12.473 27.5887 13.5478 27.4095 14.6822C27.3864 14.8347 27.4137 14.9906 27.4873 15.1262C27.561 15.2618 27.6769 15.3696 27.8174 15.4333C29.8112 16.355 31.4998 17.8279 32.6839 19.678C33.868 21.5281 34.4981 23.6783 34.5 25.8749C34.5 26.1049 34.5 26.3313 34.4784 26.5577C34.4736 26.6551 34.4885 26.7524 34.5225 26.8438C34.5564 26.9352 34.6086 27.0188 34.6758 27.0893C34.743 27.1599 34.8239 27.2161 34.9136 27.2545C35.0032 27.2928 35.0997 27.3125 35.1972 27.3124H43.125C43.4494 27.3129 43.7645 27.2036 44.019 27.0023C44.2735 26.801 44.4523 26.5196 44.5266 26.2037C44.5731 25.9872 44.5709 25.763 44.5203 25.5473C44.4696 25.3317 44.3717 25.1299 44.2337 24.9567H44.2247ZM28.2325 32.7156C29.6638 31.6195 30.7156 30.1024 31.2402 28.3775C31.7647 26.6527 31.7356 24.8069 31.1569 23.0994C30.5782 21.392 29.479 19.9089 28.0138 18.8584C26.5486 17.808 24.7911 17.243 22.9883 17.243C21.1855 17.243 19.428 17.808 17.9628 18.8584C16.4976 19.9089 15.3985 21.392 14.8198 23.0994C14.241 24.8069 14.2119 26.6527 14.7365 28.3775C15.261 30.1024 16.3128 31.6195 17.7441 32.7156C15.2043 33.8161 13.0835 35.7007 11.6923 38.0937C11.5661 38.3122 11.4997 38.5601 11.4997 38.8125C11.4997 39.0648 11.5661 39.3128 11.6923 39.5313C11.8185 39.7498 12.0001 39.9313 12.2186 40.0574C12.4372 40.1836 12.6851 40.25 12.9375 40.2499H33.0625C33.3149 40.25 33.5628 40.1836 33.7814 40.0574C33.9999 39.9313 34.1814 39.7498 34.3077 39.5313C34.4339 39.3128 34.5003 39.0648 34.5003 38.8125C34.5003 38.5601 34.4339 38.3122 34.3077 38.0937C32.9135 35.6992 30.7887 33.8144 28.2451 32.7156H28.2325Z" fill="white"/>
</svg>
